<svg width="223" height="61" viewBox="0 0 223 61" fill="none" xmlns="http://www.w3.org/2000/svg">
<path d="M67.8584 28.8048C68.3921 28.9373 68.8591 29.2021 69.2594 29.5994C69.6596 29.9967 69.7263 30.5265 69.4595 31.1887C68.9258 32.6455 68.0586 33.7712 66.8578 34.5658C65.7904 35.228 64.6564 35.8901 63.4556 36.5523C61.5877 37.7442 59.6531 38.9362 57.6518 40.1281C55.7839 41.1876 53.8493 42.2471 51.848 43.3066C47.712 45.558 43.5093 47.677 39.2398 49.6635C35.1038 51.65 30.8343 53.4379 26.4315 55.0271C24.9639 55.5569 23.096 56.2191 20.8278 57.0137C18.6931 57.6759 16.4917 58.2056 14.2235 58.6029C11.9554 59.0002 9.75397 59.1326 7.61924 59.0002C5.48452 58.8678 3.75006 58.1394 2.41586 56.815C0.681396 55.2258 -0.119125 53.3055 0.014295 51.0541C0.014295 48.6702 0.347845 46.485 1.01495 44.4985C2.61599 39.201 5.15097 34.4334 8.61989 30.1954C9.28699 29.4008 10.0875 28.4737 11.0215 27.4142C11.9554 26.3547 12.956 25.4277 14.0234 24.6331C15.0908 23.706 16.2248 22.9776 17.4256 22.4479C18.6264 21.9181 19.8272 21.8519 21.028 22.2492C22.8958 22.779 23.9632 23.9709 24.23 25.825C24.6303 27.6791 24.3635 29.3346 23.4295 30.7914C23.1627 31.3211 22.8291 31.586 22.4289 31.586C21.7618 31.4535 21.3615 31.1887 21.2281 30.7914C21.2281 30.2616 21.1614 29.7981 21.028 29.4008C20.7611 28.3413 20.4943 27.6791 20.2274 27.4142C20.094 27.0169 19.4269 27.348 18.2261 28.4075L15.8246 30.7914C11.4217 35.4266 8.41976 40.6578 6.81872 46.485C6.55188 47.6769 6.28504 49.1337 6.0182 50.8554C5.75136 52.4446 6.48517 53.4379 8.21963 53.8352C9.15357 54.1001 10.1542 54.1663 11.2216 54.0339C12.2889 53.769 13.2896 53.5041 14.2235 53.2393C16.3583 52.842 18.4263 52.3784 20.4276 51.8487C22.4289 51.1865 24.4302 50.5243 26.4315 49.8621C30.8343 48.2729 35.1038 46.4188 39.2398 44.2998C43.5093 42.1808 47.712 39.9957 51.848 37.7442C53.5825 36.8172 55.2502 35.8902 56.8513 34.9631C58.5857 34.0361 60.2535 33.0428 61.8545 31.9833C62.9219 31.3211 63.9893 30.7251 65.0566 30.1954C66.124 29.5332 67.3248 29.2683 68.659 29.4008L67.8584 28.8048Z" fill="white"/>
<path d="M153.117 29.4008C153.784 29.0035 154.385 28.9373 154.918 29.2021C155.452 29.467 155.852 29.8643 156.119 30.3941C156.519 30.9238 156.653 31.4535 156.519 31.9833C156.519 32.513 156.186 32.9766 155.519 33.3739C151.649 35.6253 147.513 37.4794 143.111 38.9362C138.708 40.393 134.305 41.4525 129.902 42.1146C125.499 42.7768 121.029 42.9093 116.493 42.5119C112.09 41.9822 107.954 40.5916 104.085 38.3402C103.285 40.1943 102.417 41.9822 101.483 43.7039C100.55 45.4255 99.5488 47.1472 98.4815 48.8689C97.9478 49.6635 97.0806 50.9878 95.8798 52.8419C94.8124 54.5636 93.5449 56.1528 92.0773 57.6096C90.7431 59.0664 89.3422 60.1259 87.8746 60.7881C86.407 61.3179 85.0728 60.8543 83.872 59.3975C82.5378 57.8083 81.804 55.6893 81.6705 53.0406C81.5371 50.2594 81.4704 47.9418 81.4704 46.0877C81.4704 45.2931 81.4704 44.4985 81.4704 43.7039C81.4704 42.9092 81.5371 42.1146 81.6705 41.32C80.6032 43.0417 79.4691 44.7634 78.2683 46.485C77.0676 48.0743 75.8668 49.7297 74.666 51.4514C74.1323 52.246 73.4652 53.173 72.6647 54.2325C71.9976 55.1596 71.1971 56.0204 70.2631 56.815C69.3292 57.4772 68.3952 57.9407 67.4613 58.2056C66.3939 58.4705 65.3266 58.2718 64.2592 57.6096C63.1919 56.9475 62.5248 56.0204 62.2579 54.8285C61.9911 53.5041 61.9244 52.1136 62.0578 50.6568C62.1912 49.0675 62.458 47.5445 62.8583 46.0877C63.1251 44.6309 63.392 43.439 63.6588 42.5119C64.8596 36.5523 66.7275 30.99 69.2625 25.825C69.5293 25.1628 69.8629 24.7655 70.2631 24.6331C70.7968 24.5007 71.3305 24.6331 71.8642 25.0304C72.5313 25.4277 72.7314 26.0899 72.4646 27.0169C71.9309 29.2683 71.2638 31.4535 70.4633 33.5725C69.7962 35.559 69.1958 37.678 68.6621 39.9294C68.3952 40.9889 68.1284 42.1146 67.8616 43.3066C67.7281 44.366 67.528 45.4255 67.2612 46.485C67.1277 47.1472 66.9276 48.2729 66.6608 49.8621C66.2605 51.4514 66.3272 52.5109 66.8609 53.0406C66.9943 53.3055 67.2612 53.2392 67.6614 52.8419C68.1951 52.4446 68.6621 51.9811 69.0623 51.4514C69.596 50.7892 70.063 50.127 70.4633 49.4648C70.8635 48.8026 71.1971 48.3391 71.4639 48.0743L75.0662 42.7106C76.5339 40.724 77.8681 38.7375 79.0689 36.751C80.4031 34.7644 81.7373 32.7779 83.0715 30.7914C83.7386 29.5994 84.6058 29.2684 85.6731 29.7981C86.8739 30.3278 87.3409 31.1887 87.0741 32.3806C86.6738 34.7644 86.3403 37.1483 86.0734 39.5321C85.8066 41.916 85.6731 44.2998 85.6731 46.6837C85.6731 47.8756 85.6731 49.1337 85.6731 50.4581C85.8066 51.65 86.0067 52.7757 86.2735 53.8352C86.6738 55.292 87.1408 55.6893 87.6744 55.0271C88.2081 54.2325 88.8085 53.4379 89.4756 52.6433C93.6116 47.6107 97.0139 41.916 99.6823 35.559C98.0812 34.3671 96.6803 32.9766 95.4795 31.3873C93.078 28.3413 91.8772 24.9642 91.8772 21.256C91.8772 17.5478 92.4109 13.972 93.4782 10.5287C94.1453 8.67457 94.8791 6.88667 95.6797 5.16501C96.6136 3.44334 97.9478 2.05278 99.6823 0.993292C101.016 0.331113 102.417 0 103.885 0C105.486 0 106.82 0.529749 107.888 1.58923C109.222 2.78116 109.956 4.30417 110.089 6.15827C110.222 7.87994 110.222 9.53539 110.089 11.1246C109.822 15.3626 109.222 19.5343 108.288 23.6398C107.487 27.0832 106.487 30.4603 105.286 33.7712C108.088 35.4928 111.156 36.6848 114.492 37.3469C120.896 38.5389 127.434 38.2078 134.105 36.3537C140.776 34.4996 146.913 32.0495 152.517 29.0035L153.117 29.4008ZM102.084 31.3873C104.219 25.5602 105.553 19.733 106.086 13.9058C106.086 13.2436 106.153 12.3165 106.287 11.1246C106.42 9.80026 106.353 8.60836 106.086 7.54887C105.953 6.35694 105.553 5.49611 104.886 4.96637C104.352 4.43662 103.485 4.63528 102.284 5.56233C100.95 6.48938 99.9491 7.87994 99.282 9.73404C98.7483 11.4557 98.3481 13.045 98.0812 14.5017C97.2807 17.6802 97.1473 20.7262 97.681 23.6398C98.2146 26.421 99.6823 28.9373 102.084 31.1887V31.3873Z" fill="white"/>
<path d="M221.299 29.5994C221.833 29.467 222.3 29.5994 222.7 29.9967C223.1 30.394 223.1 30.8576 222.7 31.3873C220.832 33.9036 218.497 35.8901 215.695 37.3469C212.893 38.8037 210.158 40.1943 207.49 41.5187C201.086 44.4323 194.815 46.8161 188.678 48.6702C186.009 49.4648 183.274 50.1932 180.472 50.8554C177.671 51.5176 174.869 52.0473 172.067 52.4446C169.665 52.7095 167.197 52.8419 164.662 52.8419C162.26 52.8419 159.926 52.3122 157.657 51.2527C155.123 50.0608 153.388 48.4716 152.454 46.485C151.387 44.366 150.853 42.1146 150.853 39.7308C150.853 37.3469 151.32 34.9631 152.254 32.5792C153.054 30.063 154.055 27.8778 155.256 26.0237C156.724 24.0371 158.391 22.183 160.259 20.4614C162.127 18.6073 164.195 17.1505 166.463 16.091C168.331 15.2964 170.266 15.0977 172.267 15.495C174.402 15.8923 175.803 17.2167 176.47 19.4681C177.003 21.7195 176.67 23.8385 175.469 25.825C174.268 27.8116 172.601 29.5332 170.466 30.99C168.331 32.4468 165.996 33.5063 163.461 34.1685C161.06 34.8307 158.858 34.9631 156.857 34.5658C156.457 36.155 156.257 37.7443 156.257 39.3335C156.257 42.2471 157.257 44.2336 159.259 45.2931C161.26 46.3526 163.595 46.8823 166.263 46.8823C171.066 46.8823 175.869 46.2201 180.672 44.8958C185.609 43.439 190.279 41.916 194.682 40.3267C199.752 38.4726 204.488 36.4861 208.891 34.3671C210.892 33.3077 212.96 32.3144 215.095 31.3873C217.23 30.3278 219.431 29.5994 221.699 29.2021L221.299 29.5994ZM161.46 26.6196C160.393 27.944 159.459 29.2683 158.658 30.5927C160.659 29.9305 162.594 29.2683 164.462 28.6062C166.33 27.8116 167.998 26.4872 169.465 24.6331C169.865 24.1033 170.266 23.4412 170.666 22.6466C171.2 21.7195 170.799 21.1235 169.465 20.8587C169.065 20.7262 168.531 20.8587 167.864 21.256C167.197 21.6533 166.73 21.9844 166.463 22.2492C164.462 23.4412 162.727 24.9642 161.26 26.8183L161.46 26.6196Z" fill="white"/>
</svg>
